<?xml version="1.0" encoding="UTF-8"?>
<!-- Generated by Pixelmator Pro 3.7 -->
<svg width="1024" height="1024" viewBox="0 0 1024 1024" xmlns="http://www.w3.org/2000/svg">
    <g id="Group">
        <path id="Path" fill="#171922" stroke="none" d="M 228.571426 0 L 795.428589 0 C 921.6651 0 1024 102.3349 1024 228.571411 L 1024 795.428589 C 1024 921.6651 921.6651 1024 795.428589 1024 L 228.571426 1024 C 102.334908 1024 -0 921.6651 -0 795.428589 L -0 228.571411 C -0 102.3349 102.334908 0 228.571426 0 Z"/>
        <path id="path1" fill="#23283a" stroke="none" d="M 155.428574 310.857117 C 155.428574 275.428589 184 246.857117 219.428574 246.857117 L 493.714294 246.857117 C 518.857117 246.857117 539.428589 267.428589 539.428589 292.571411 L 539.428589 310.857117 L 804.571411 310.857117 C 840 310.857117 868.571411 339.428589 868.571411 374.857117 L 868.571411 731.428589 C 868.571411 766.857178 840 795.428589 804.571411 795.428589 L 219.428574 795.428589 C 184 795.428589 155.428574 766.857178 155.428574 731.428589 L 155.428574 310.857117 Z"/>
        <path id="path2" fill="#2e3550" stroke="none" d="M 283.428558 246.857117 L 475.428558 246.857117 C 485.527496 246.857117 493.714294 255.043945 493.714294 265.142883 L 493.714294 292.571411 C 493.714294 302.670349 485.527496 310.857117 475.428558 310.857117 L 283.428558 310.857117 C 273.329651 310.857117 265.142853 302.670349 265.142853 292.571411 L 265.142853 265.142883 C 265.142853 255.043945 273.329651 246.857117 283.428558 246.857117 Z"/>
        <path id="path3" fill="#0e111a" stroke="#6aa1ff" stroke-width="32" d="M 893.714294 658.285706 C 893.714294 740.339417 827.196594 806.857178 745.142883 806.857178 C 663.089172 806.857178 596.571411 740.339417 596.571411 658.285706 C 596.571411 576.231995 663.089172 509.714294 745.142883 509.714294 C 827.196594 509.714294 893.714294 576.231995 893.714294 658.285706 Z"/>
        <path id="path4" fill="none" stroke="#6aa1ff" stroke-width="32" stroke-linecap="round" stroke-linejoin="round" d="M 745.142883 566.857178 L 745.142883 658.285706 L 809.142883 699.428589"/>
    </g>
</svg>
